<?xml version="1.0" encoding="utf-8"?>
<!-- Generator: Adobe Illustrator 16.0.0, SVG Export Plug-In . SVG Version: 6.00 Build 0)  -->
<!DOCTYPE svg PUBLIC "-//W3C//DTD SVG 1.1//EN" "http://www.w3.org/Graphics/SVG/1.1/DTD/svg11.dtd">
<svg version="1.1" id="Layer_1" xmlns="http://www.w3.org/2000/svg" xmlns:xlink="http://www.w3.org/1999/xlink" x="0px" y="0px"
	 width="64px" height="64px" viewBox="0 0 64 64" enable-background="new 0 0 64 64" xml:space="preserve">
<g>
	<g>
		<polygon fill="#00A9DB" points="49.438,58.094 9.676,58.094 9.676,5.906 37.012,5.906 49.438,18.332 		"/>
		<polygon fill="#0AC6FF" points="47.574,19.574 35.77,19.574 35.77,7.771 		"/>
	</g>
	<g>
		<g>
			<polygon fill="#FFA000" points="47.273,54.96 44.141,58.094 41.008,58.094 37.873,54.96 37.873,39.293 47.273,39.293 
				47.273,45.561 45.707,47.127 47.273,48.693 47.273,50.26 45.707,51.826 47.273,53.394 			"/>
			<path fill="#FFA000" d="M53.541,28.953c-0.393-1.41-1.566-2.428-2.898-2.82c-1.881-0.391-4.779-0.939-8.068-0.939
				c-3.291,0-6.189,0.549-8.068,0.939c-1.332,0.393-2.507,1.41-2.899,2.82c-0.392,1.332-0.783,3.212-0.783,5.248
				c0,2.037,0.392,3.917,0.783,5.249c0.392,1.409,1.489,2.429,2.899,2.741c1.879,0.471,4.777,1.019,8.068,1.019
				c3.289,0,6.188-0.548,8.068-0.94c1.41-0.313,2.506-1.41,2.898-2.741c0.391-1.331,0.783-3.212,0.783-5.248
				C54.324,32.165,53.932,30.285,53.541,28.953z M46.49,33.027h-7.832c-0.863,0-1.568-0.705-1.568-1.567v-1.566
				c0-0.47,2.43-0.784,5.484-0.784s5.482,0.314,5.482,0.784v1.566C48.057,32.322,47.352,33.027,46.49,33.027z"/>
		</g>
		<rect x="41.791" y="43.21" fill="#D68600" width="1.566" height="14.884"/>
	</g>
</g>
</svg>
