<?xml version="1.0" encoding="utf-8"?>
<!-- Generator: Adobe Illustrator 16.0.0, SVG Export Plug-In . SVG Version: 6.00 Build 0)  -->
<!DOCTYPE svg PUBLIC "-//W3C//DTD SVG 1.1//EN" "http://www.w3.org/Graphics/SVG/1.1/DTD/svg11.dtd">
<svg version="1.1" id="Layer_1" xmlns="http://www.w3.org/2000/svg" xmlns:xlink="http://www.w3.org/1999/xlink" x="0px" y="0px"
	 width="64px" height="64px" viewBox="0 0 64 64" enable-background="new 0 0 64 64" xml:space="preserve">
<g>
	<g>
		<defs>
			<rect id="SVGID_1_" width="64" height="64"/>
		</defs>
		<clipPath id="SVGID_2_">
			<use xlink:href="#SVGID_1_"  overflow="visible"/>
		</clipPath>
		<g clip-path="url(#SVGID_2_)">
			<g>
				<defs>
					<rect id="SVGID_3_" width="64" height="64"/>
				</defs>
				<clipPath id="SVGID_4_">
					<use xlink:href="#SVGID_3_"  overflow="visible"/>
				</clipPath>
				<g clip-path="url(#SVGID_4_)">
					<g opacity="0.2">
						<g>
							<defs>
								<rect id="SVGID_5_" x="18.5" y="12.333" width="27" height="20.834"/>
							</defs>
							<clipPath id="SVGID_6_">
								<use xlink:href="#SVGID_5_"  overflow="visible"/>
							</clipPath>
						</g>
					</g>
					<g>
						<defs>
							<rect id="SVGID_7_" width="64" height="64"/>
						</defs>
						<defs>
							<rect id="SVGID_8_" width="64" height="64"/>
						</defs>
						<defs>
							<rect id="SVGID_9_" width="64" height="64"/>
						</defs>
						<clipPath id="SVGID_10_">
							<use xlink:href="#SVGID_7_"  overflow="visible"/>
						</clipPath>
						<clipPath id="SVGID_11_" clip-path="url(#SVGID_10_)">
							<use xlink:href="#SVGID_8_"  overflow="visible"/>
						</clipPath>
						<clipPath id="SVGID_12_" clip-path="url(#SVGID_11_)">
							<use xlink:href="#SVGID_9_"  overflow="visible"/>
						</clipPath>
						<path clip-path="url(#SVGID_12_)" fill="#4F5D73" d="M45.5,31.167h-5v-7.334c0-4.687-3.813-8.5-8.5-8.5
							c-4.687,0-8.5,3.813-8.5,8.5v7.334h-5v-7.334c0-7.444,6.056-13.5,13.5-13.5c7.443,0,13.5,6.056,13.5,13.5V31.167z"/>
						<path clip-path="url(#SVGID_12_)" fill="#4F5D73" d="M32,32c-2.209,0-4,1.791-4,4c0,1.477,0.809,2.752,2,3.445V42
							c0,1.105,0.895,2,2,2c1.105,0,2-0.895,2-2v-2.555c1.191-0.693,2-1.969,2-3.445C36,33.791,34.209,32,32,32"/>
						<g clip-path="url(#SVGID_12_)">
							<g opacity="0.2">
								<g>
									<defs>
										<rect id="SVGID_13_" x="14" y="27" width="36" height="25"/>
									</defs>
									<clipPath id="SVGID_14_">
										<use xlink:href="#SVGID_13_"  overflow="visible"/>
									</clipPath>
								</g>
							</g>
							<g>
								<defs>
									<rect id="SVGID_15_" width="64" height="64"/>
								</defs>
								<clipPath id="SVGID_16_">
									<use xlink:href="#SVGID_15_"  overflow="visible"/>
								</clipPath>
								<path clip-path="url(#SVGID_16_)" fill="#AD703F" d="M47,25H17c-1.657,0-3,1.343-3,3v19c0,1.657,1.343,3,3,3h30
									c1.657,0,3-1.343,3-3V28C50,26.343,48.657,25,47,25 M34,39.445V42c0,1.104-0.895,2-2,2c-1.105,0-2-0.896-2-2v-2.555
									c-1.191-0.693-2-1.969-2-3.445c0-2.209,1.791-4,4-4s4,1.791,4,4C36,37.479,35.191,38.752,34,39.445"/>
							</g>
						</g>
					</g>
				</g>
			</g>
		</g>
	</g>
</g>
</svg>
