<?xml version="1.0" encoding="utf-8"?>
<!-- Generator: Adobe Illustrator 16.0.0, SVG Export Plug-In . SVG Version: 6.00 Build 0)  -->
<!DOCTYPE svg PUBLIC "-//W3C//DTD SVG 1.1//EN" "http://www.w3.org/Graphics/SVG/1.1/DTD/svg11.dtd">
<svg version="1.1" id="Layer_1" xmlns="http://www.w3.org/2000/svg" xmlns:xlink="http://www.w3.org/1999/xlink" x="0px" y="0px"
	 width="32px" height="32px" viewBox="0 0 32 32" enable-background="new 0 0 32 32" xml:space="preserve">
<g>
	<path fill="#00A9DB" stroke="#00A9DB" stroke-width="2" stroke-miterlimit="10" d="M21.71,12.729l-5.782,5.782l-5.782-5.782
		c-0.39-0.39-1.023-0.39-1.413,0c-0.391,0.391-0.391,1.024,0,1.414l6.485,6.486c0.196,0.196,0.454,0.294,0.71,0.292
		c0.258,0,0.514-0.096,0.71-0.292l6.485-6.486c0.391-0.39,0.391-1.023,0-1.414C22.734,12.339,22.1,12.339,21.71,12.729z M16,1.071
		c-8.244,0-14.928,6.684-14.928,14.928C1.07,24.245,7.754,30.929,16,30.929c8.244,0,14.928-6.684,14.928-14.928
		C30.928,7.755,24.244,1.071,16,1.071z M16,28.929c-7.128,0-12.928-5.8-12.928-12.928S8.872,3.073,16,3.073
		c7.128-0.002,12.928,5.798,12.928,12.928C28.928,23.129,23.128,28.929,16,28.929z"/>
</g>
</svg>
