<?xml version="1.0" encoding="utf-8"?>
<!-- Generator: Adobe Illustrator 16.0.0, SVG Export Plug-In . SVG Version: 6.00 Build 0)  -->
<!DOCTYPE svg PUBLIC "-//W3C//DTD SVG 1.1//EN" "http://www.w3.org/Graphics/SVG/1.1/DTD/svg11.dtd">
<svg version="1.1" id="Layer_1" xmlns="http://www.w3.org/2000/svg" xmlns:xlink="http://www.w3.org/1999/xlink" x="0px" y="0px"
	 width="64px" height="64px" viewBox="0 0 64 64" enable-background="new 0 0 64 64" xml:space="preserve">
<g>
	<polygon fill="#B8D6FA" points="49.438,58.094 9.676,58.094 9.676,5.906 37.012,5.906 49.438,18.332 	"/>
	<polygon fill="#CDE3F7" points="47.574,19.574 35.77,19.574 35.77,7.771 	"/>
</g>
<g>
	<g>
		<polygon fill="#A0A0A0" points="46.273,53.96 43.141,57.094 40.008,57.094 36.873,53.96 36.873,38.293 46.273,38.293 
			46.273,44.561 44.707,46.127 46.273,47.693 46.273,49.26 44.707,50.826 46.273,52.395 		"/>
		<path fill="#A0A0A0" d="M52.541,27.953c-0.393-1.41-1.566-2.428-2.898-2.82c-1.881-0.391-4.779-0.939-8.065-0.939
			c-3.291,0-6.188,0.549-8.068,0.939c-1.332,0.393-2.507,1.41-2.899,2.82c-0.392,1.332-0.783,3.212-0.783,5.248
			c0,2.037,0.392,3.917,0.783,5.249c0.392,1.409,1.49,2.429,2.899,2.741c1.882,0.471,4.777,1.019,8.068,1.019
			c3.286,0,6.188-0.548,8.065-0.94c1.41-0.313,2.506-1.41,2.898-2.738c0.391-1.331,0.783-3.215,0.783-5.248
			C53.324,31.165,52.932,29.285,52.541,27.953z M45.49,32.027h-7.832c-0.863,0-1.568-0.705-1.568-1.567v-1.566
			c0-0.47,2.43-0.784,5.484-0.784c3.054,0,5.482,0.314,5.482,0.784v1.566C47.057,31.322,46.352,32.027,45.49,32.027z"/>
	</g>
	<rect x="40.791" y="42.21" fill="#838384" width="1.566" height="14.884"/>
</g>
</svg>
