<?xml version="1.0" encoding="utf-8"?>
<!-- Generator: Adobe Illustrator 16.0.0, SVG Export Plug-In . SVG Version: 6.00 Build 0)  -->
<!DOCTYPE svg PUBLIC "-//W3C//DTD SVG 1.1//EN" "http://www.w3.org/Graphics/SVG/1.1/DTD/svg11.dtd">
<svg version="1.1" id="Layer_1" xmlns="http://www.w3.org/2000/svg" xmlns:xlink="http://www.w3.org/1999/xlink" x="0px" y="0px"
	 width="64px" height="64px" viewBox="0 0 64 64" enable-background="new 0 0 64 64" xml:space="preserve">
<path fill="#C75C5C" d="M32,60.333C16.377,60.333,3.667,47.623,3.667,32S16.377,3.667,32,3.667S60.333,16.377,60.333,32
	S47.623,60.333,32,60.333"/>
<path fill="#FFFFFF" d="M32,17.833c7.811,0,14.166,6.355,14.166,14.167c0,7.811-6.355,14.166-14.166,14.166
	c-7.812,0-14.167-6.355-14.167-14.166C17.833,24.188,24.188,17.833,32,17.833 M32,12.167c-10.953,0-19.833,8.88-19.833,19.833
	c0,10.954,8.88,19.833,19.833,19.833c10.954,0,19.833-8.879,19.833-19.833C51.833,21.047,42.954,12.167,32,12.167"/>
<path fill="#FFFFFF" d="M39.083,32c0,3.911-3.172,7.083-7.083,7.083S24.917,35.911,24.917,32s3.172-7.083,7.083-7.083
	S39.083,28.089,39.083,32"/>
<circle fill="#C75C5C" cx="32" cy="32" r="2.791"/>
</svg>
