<?xml version="1.0" encoding="utf-8"?>
<!-- Generator: Adobe Illustrator 16.0.0, SVG Export Plug-In . SVG Version: 6.00 Build 0)  -->
<!DOCTYPE svg PUBLIC "-//W3C//DTD SVG 1.1//EN" "http://www.w3.org/Graphics/SVG/1.1/DTD/svg11.dtd">
<svg version="1.1" id="Layer_1" xmlns="http://www.w3.org/2000/svg" xmlns:xlink="http://www.w3.org/1999/xlink" x="0px" y="0px"
	 width="64px" height="64px" viewBox="0 0 64 64" enable-background="new 0 0 64 64" xml:space="preserve">
<path fill="#ECAB7D" d="M32,51.297c-6.616,0-6.892-9.648-6.892-9.648v-8.27h13.784v8.27C38.892,41.648,38.615,51.297,32,51.297z"/>
<g>
	<circle fill="#ECAB7D" cx="44.404" cy="25.108" r="2.757"/>
	<circle fill="#ECAB7D" cx="19.595" cy="25.108" r="2.757"/>
</g>
<path fill="#FFCB9E" d="M44.404,16.839c0-10.475-24.809-6.891-24.809,0c0,1.516,0,8.132,0,9.648c0,6.892,5.513,12.406,12.405,12.406
	c6.892,0,12.404-5.514,12.404-12.406C44.404,24.971,44.404,18.355,44.404,16.839z"/>
<path fill="#423736" d="M32,4.434c-8.408,0-13.783,6.753-13.783,15.161c0,1.103,0,3.17,0,3.17l2.756,2.343v-6.891l16.539-5.513
	l5.514,5.513v6.891l2.755-2.343c0,0,0-2.067,0-3.17c0-5.513-1.377-11.026-8.269-12.405l-1.378-2.756H32z"/>
<g>
	<circle fill="#1B2C33" cx="37.513" cy="25.108" r="1.378"/>
	<circle fill="#1B2C33" cx="26.486" cy="25.108" r="1.378"/>
</g>
<path fill="#B8D6FA" d="M38.892,41.648L38.892,41.648c0,0-2.48,2.756-6.892,2.756c-4.411,0-6.892-2.756-6.892-2.756
	S9.947,44.404,9.947,59.566h44.105C54.053,44.404,38.892,41.648,38.892,41.648z"/>
</svg>
