<?xml version="1.0" encoding="utf-8"?>
<!-- Generator: Adobe Illustrator 16.0.0, SVG Export Plug-In . SVG Version: 6.00 Build 0)  -->
<!DOCTYPE svg PUBLIC "-//W3C//DTD SVG 1.1//EN" "http://www.w3.org/Graphics/SVG/1.1/DTD/svg11.dtd">
<svg version="1.1" id="Layer_1" xmlns="http://www.w3.org/2000/svg" xmlns:xlink="http://www.w3.org/1999/xlink" x="0px" y="0px"
	 width="64px" height="64px" viewBox="0 0 64 64" enable-background="new 0 0 64 64" xml:space="preserve">
<path fill="#607D8B" d="M39.473,37.807c0.503,0.139,1.006,0.276,1.592,0.352c0.587,0.075,1.107,0.066,1.63,0.058l1.923,3.595
	c0.182,0.322,0.603,0.525,0.997,0.353l5.829-2.531c0.395-0.173,0.589-0.52,0.415-0.915l-1.217-3.876
	c0.771-0.796,1.396-1.608,1.967-2.578l4.073,0.149c0.376-0.026,0.707-0.282,0.753-0.648l0.804-6.298
	c0.047-0.366-0.199-0.77-0.565-0.817l-3.981-0.88c-0.308-1.081-0.698-2.098-1.255-2.987l2.151-3.447
	c0.193-0.347,0.103-0.805-0.172-0.989l-5.017-3.84c-0.338-0.267-0.796-0.177-1.053,0.089l-2.764,2.996
	c-0.503-0.139-1.007-0.277-1.593-0.352c-0.586-0.075-1.107-0.067-1.63-0.06l-1.902-3.741c-0.183-0.321-0.604-0.524-0.998-0.351
	l-5.821,2.457c-0.394,0.174-0.586,0.521-0.414,0.915l1.217,3.877c-0.771,0.795-1.396,1.607-1.966,2.577L28.4,20.764
	c-0.375,0.027-0.706,0.283-0.752,0.648l-0.804,6.298c-0.047,0.366,0.2,0.769,0.565,0.815l3.981,0.88
	c0.309,1.082,0.7,2.1,1.256,2.989l-2.153,3.445c-0.192,0.349-0.102,0.806,0.171,0.989l5.019,3.841
	c0.337,0.267,0.796,0.176,1.054-0.088L39.473,37.807z M35.218,25.654c0.515-4.028,4.23-6.902,8.258-6.388
	c4.027,0.514,6.903,4.229,6.389,8.257c-0.515,4.028-4.23,6.903-8.258,6.389C37.578,33.396,34.704,29.681,35.218,25.654z"/>
<path fill="#455A64" d="M51.328,27.709c0.617-4.832-2.832-9.291-7.665-9.908c-4.832-0.617-9.291,2.833-9.908,7.664
	c-0.617,4.834,2.833,9.293,7.665,9.909C46.253,35.993,50.711,32.545,51.328,27.709z M38.88,26.12
	c0.262-2.05,2.078-3.456,4.129-3.193c2.05,0.262,3.457,2.078,3.194,4.128c-0.262,2.051-2.079,3.456-4.129,3.194
	C40.023,29.988,38.618,28.171,38.88,26.12z"/>
<path fill="#556D77" d="M10.864,45.579c0.377,0.362,0.754,0.724,1.233,1.068c0.479,0.346,0.94,0.59,1.404,0.831l-0.026,4.077
	c0.007,0.368,0.28,0.748,0.708,0.783l6.332,0.56c0.427,0.035,0.764-0.178,0.799-0.607l0.782-3.986
	c1.058-0.329,1.996-0.747,2.958-1.325l3.509,2.074c0.343,0.156,0.756,0.09,0.971-0.21l3.712-5.15
	c0.217-0.299,0.192-0.771-0.106-0.987l-3.077-2.674c0.244-1.096,0.387-2.177,0.322-3.225l3.536-2.001
	c0.336-0.212,0.476-0.66,0.321-0.952l-2.573-5.769c-0.17-0.396-0.616-0.535-0.968-0.423l-3.859,1.312
	c-0.376-0.36-0.751-0.723-1.231-1.068c-0.479-0.346-0.941-0.588-1.403-0.831l0.113-4.196c-0.009-0.368-0.28-0.749-0.71-0.784
	l-6.29-0.62c-0.427-0.036-0.762,0.178-0.799,0.605l-0.78,3.989c-1.057,0.331-1.994,0.746-2.958,1.324l-3.51-2.075
	c-0.341-0.155-0.755-0.089-0.968,0.211L4.588,30.68c-0.214,0.299-0.191,0.771,0.108,0.985l3.077,2.675
	c-0.245,1.098-0.387,2.178-0.322,3.226l-3.537,2c-0.334,0.215-0.475,0.659-0.321,0.951l2.575,5.769
	c0.171,0.397,0.616,0.536,0.969,0.427L10.864,45.579z M12.931,32.869c2.373-3.292,7.008-4.045,10.304-1.669
	c3.291,2.373,4.045,7.01,1.67,10.304c-2.374,3.292-7.012,4.045-10.305,1.671C11.307,40.801,10.555,36.163,12.931,32.869z"/>
<path fill="#455A64" d="M26.103,42.367c2.848-3.952,1.946-9.518-2.004-12.365c-3.954-2.851-9.518-1.948-12.367,2.004
	c-2.849,3.953-1.947,9.519,2.006,12.367C17.689,47.221,23.254,46.319,26.103,42.367z M15.924,35.027
	c1.208-1.676,3.475-2.044,5.152-0.834c1.676,1.208,2.044,3.476,0.837,5.15c-1.209,1.679-3.477,2.047-5.153,0.837
	C15.082,38.972,14.714,36.704,15.924,35.027z"/>
<line fill="none" stroke="#C75C5C" stroke-width="5" stroke-miterlimit="10" x1="2.78" y1="7.916" x2="61.219" y2="56.084"/>
</svg>
