<?xml version="1.0" encoding="utf-8"?>
<!-- Generator: Adobe Illustrator 16.0.0, SVG Export Plug-In . SVG Version: 6.00 Build 0)  -->
<!DOCTYPE svg PUBLIC "-//W3C//DTD SVG 1.1//EN" "http://www.w3.org/Graphics/SVG/1.1/DTD/svg11.dtd">
<svg version="1.1" id="Layer_1" xmlns="http://www.w3.org/2000/svg" xmlns:xlink="http://www.w3.org/1999/xlink" x="0px" y="0px"
	 width="64px" height="64px" viewBox="0 0 64 64" enable-background="new 0 0 64 64" xml:space="preserve">
<polygon fill="#53AD97" stroke="#53AD97" stroke-miterlimit="10" points="56.498,53.102 22.058,53.102 22.058,7.898 45.736,7.898 
	56.498,18.661 "/>
<g>
	<rect x="30.668" y="27.271" fill="#5D5D5D" width="18.297" height="2.152"/>
	<rect x="30.668" y="31.576" fill="#5D5D5D" width="13.991" height="2.154"/>
	<rect x="30.668" y="35.882" fill="#5D5D5D" width="18.297" height="2.151"/>
	<rect x="30.668" y="40.187" fill="#5D5D5D" width="13.991" height="2.152"/>
</g>
<polygon fill="#90CAF9" points="41.942,56.102 7.502,56.102 7.502,10.898 31.181,10.898 41.942,21.661 "/>
<g>
	<rect x="16.112" y="30.271" fill="#1976D2" width="18.297" height="2.152"/>
	<rect x="16.112" y="34.575" fill="#1976D2" width="13.991" height="2.154"/>
	<rect x="16.112" y="38.882" fill="#1976D2" width="18.297" height="2.151"/>
	<rect x="16.112" y="43.187" fill="#1976D2" width="13.991" height="2.152"/>
</g>
<line fill="none" stroke="#C75C5C" stroke-width="5" stroke-miterlimit="10" x1="2.729" y1="6" x2="61.167" y2="54.167"/>
</svg>
