<?xml version="1.0" encoding="utf-8"?>
<!-- Generator: Adobe Illustrator 16.0.0, SVG Export Plug-In . SVG Version: 6.00 Build 0)  -->
<!DOCTYPE svg PUBLIC "-//W3C//DTD SVG 1.1//EN" "http://www.w3.org/Graphics/SVG/1.1/DTD/svg11.dtd">
<svg version="1.1" id="Layer_1" xmlns="http://www.w3.org/2000/svg" xmlns:xlink="http://www.w3.org/1999/xlink" x="0px" y="0px"
	 width="64px" height="64px" viewBox="0 0 64 64" enable-background="new 0 0 64 64" xml:space="preserve">
<g>
	<g>
		<path fill="#E5E5E5" d="M59.824,48.763c0,0.505-0.408,0.913-0.912,0.913H8.509c-0.504,0-0.912-0.408-0.912-0.913V13.412
			c0-0.503,0.408-0.912,0.912-0.912h50.403c0.504,0,0.912,0.409,0.912,0.912V48.763z"/>
		<path fill="#A5A5A5" d="M59.824,15.921c0,0.503-0.408,0.913-0.912,0.913H8.509c-0.504,0-0.912-0.409-0.912-0.913v-2.509
			c0-0.503,0.408-0.912,0.912-0.912h50.403c0.504,0,0.912,0.409,0.912,0.912V15.921z"/>
		<path fill="#F9F9F9" d="M43.574,15.28c0,0.284-0.328,0.513-0.736,0.513H9.929c-0.406,0-0.735-0.23-0.735-0.513v-0.77
			c0-0.284,0.329-0.514,0.735-0.514h32.909c0.406,0,0.736,0.23,0.736,0.514V15.28z"/>
		<path fill="#F9F9F9" d="M59.197,15.066c0,0.284-0.133,0.514-0.297,0.514H45.527c-0.166,0-0.299-0.23-0.299-0.514v-0.771
			c0-0.283,0.133-0.513,0.299-0.513h13.371c0.166,0,0.299,0.23,0.299,0.513V15.066L59.197,15.066z"/>
		<rect x="56.746" y="12.5" fill="#FF4C22" width="1.938" height="1.084"/>
	</g>
	<g>
		<path fill="#E5E5E5" d="M58.229,49.676c0,0.504-0.408,0.912-0.912,0.912H6.912C6.408,50.588,6,50.18,6,49.676V14.325
			c0-0.503,0.408-0.913,0.912-0.913h50.404c0.504,0,0.912,0.409,0.912,0.913V49.676z"/>
		<path fill="#A5A5A5" d="M58.229,16.833c0,0.503-0.408,0.912-0.912,0.912H6.912C6.408,17.746,6,17.337,6,16.833v-2.509
			c0-0.503,0.408-0.913,0.912-0.913h50.404c0.504,0,0.912,0.409,0.912,0.913V16.833z"/>
		<path fill="#F9F9F9" d="M41.979,16.192c0,0.284-0.33,0.514-0.736,0.514H8.332c-0.406,0-0.735-0.23-0.735-0.514v-0.77
			c0-0.284,0.329-0.514,0.735-0.514h32.91c0.406,0,0.736,0.229,0.736,0.514V16.192z"/>
		<path fill="#F9F9F9" d="M57.602,15.964c0,0.284-0.133,0.514-0.299,0.514H43.93c-0.164,0-0.299-0.23-0.299-0.514v-0.77
			c0-0.284,0.135-0.513,0.299-0.513h13.371c0.166,0,0.301,0.229,0.301,0.513V15.964L57.602,15.964z"/>
		<rect x="55.148" y="13.412" fill="#FF4C22" width="1.939" height="1.084"/>
	</g>
	<g>
		<path fill="#E5E5E5" d="M56.404,50.588c0,0.504-0.408,0.912-0.914,0.912H5.088c-0.504,0-0.912-0.408-0.912-0.912V15.237
			c0-0.503,0.408-0.912,0.912-0.912H55.49c0.506,0,0.914,0.409,0.914,0.912V50.588z"/>
		<path fill="#A5A5A5" d="M56.404,17.746c0,0.503-0.408,0.912-0.914,0.912H5.088c-0.504,0-0.912-0.409-0.912-0.912v-2.509
			c0-0.503,0.408-0.912,0.912-0.912H55.49c0.506,0,0.914,0.409,0.914,0.912V17.746z"/>
		<path fill="#F9F9F9" d="M40.154,16.876c0,0.284-0.33,0.514-0.736,0.514H6.508c-0.406,0-0.735-0.23-0.735-0.514v-0.77
			c0-0.284,0.329-0.514,0.735-0.514h32.91c0.406,0,0.736,0.23,0.736,0.514V16.876z"/>
		<path fill="#F9F9F9" d="M55.775,16.876c0,0.284-0.133,0.514-0.297,0.514H42.105c-0.164,0-0.299-0.23-0.299-0.514v-0.77
			c0-0.284,0.135-0.514,0.299-0.514h13.371c0.166,0,0.299,0.23,0.299,0.514V16.876L55.775,16.876z"/>
		<rect x="53.324" y="14.325" fill="#FF4C22" width="1.939" height="1.083"/>
	</g>
</g>
<line fill="none" stroke="#C75C5C" stroke-width="5" stroke-miterlimit="10" x1="2.781" y1="7.917" x2="61.219" y2="56.084"/>
</svg>
