<?xml version="1.0" encoding="utf-8"?>
<!-- Generator: Adobe Illustrator 16.0.0, SVG Export Plug-In . SVG Version: 6.00 Build 0)  -->
<!DOCTYPE svg PUBLIC "-//W3C//DTD SVG 1.1//EN" "http://www.w3.org/Graphics/SVG/1.1/DTD/svg11.dtd">
<svg version="1.1" id="Layer_1" xmlns="http://www.w3.org/2000/svg" xmlns:xlink="http://www.w3.org/1999/xlink" x="0px" y="0px"
	 width="64px" height="64px" viewBox="0 0 64 64" enable-background="new 0 0 64 64" xml:space="preserve">
<g>
	<g>
		<g>
			<path fill="#A0A0A0" d="M52.393,33.512h-7.554V22.433c0-7.08-5.759-12.839-12.839-12.839s-12.839,5.76-12.839,12.839v11.079
				h-7.553V22.433c0-11.244,9.147-20.392,20.392-20.392c11.243,0,20.393,9.148,20.393,20.392V33.512z"/>
			
				<linearGradient id="SVGID_1_" gradientUnits="userSpaceOnUse" x1="511.4561" y1="844.3008" x2="542.9442" y2="795.8135" gradientTransform="matrix(1 0 0 1 -495.1992 -776.9805)">
				<stop  offset="0" style="stop-color:#FFC84C"/>
				<stop  offset="1" style="stop-color:#FFDD82"/>
			</linearGradient>
			<path fill="url(#SVGID_1_)" d="M54.657,24.196H9.343c-2.504,0-4.531,2.028-4.531,4.532v28.7c0,2.502,2.027,4.531,4.531,4.531
				h45.314c2.504,0,4.53-2.029,4.53-4.531v-28.7C59.188,26.224,57.161,24.196,54.657,24.196 M35.021,46.016v3.859
				c0,1.666-1.354,3.02-3.021,3.02s-3.021-1.354-3.021-3.02v-3.859c-1.799-1.047-3.021-2.975-3.021-5.203
				c0-3.338,2.705-6.043,6.042-6.043c3.336,0,6.042,2.705,6.042,6.043C38.042,43.045,36.82,44.969,35.021,46.016"/>
		</g>
	</g>
</g>
<path fill="#A0A0A0" d="M32,33.941c-3.581,0-6.484,2.904-6.484,6.484c0,2.395,1.313,4.463,3.242,5.584v4.145
	c0,1.791,1.451,3.24,3.242,3.24c1.792,0,3.243-1.449,3.243-3.24V46.01c1.93-1.121,3.241-3.191,3.241-5.584
	C38.484,36.846,35.58,33.941,32,33.941"/>
</svg>
