<?xml version="1.0" encoding="utf-8"?>
<!-- Generator: Adobe Illustrator 16.0.0, SVG Export Plug-In . SVG Version: 6.00 Build 0)  -->
<!DOCTYPE svg PUBLIC "-//W3C//DTD SVG 1.1//EN" "http://www.w3.org/Graphics/SVG/1.1/DTD/svg11.dtd">
<svg version="1.1" id="Layer_1" xmlns="http://www.w3.org/2000/svg" xmlns:xlink="http://www.w3.org/1999/xlink" x="0px" y="0px"
	 width="64px" height="64px" viewBox="0 0 64 64" enable-background="new 0 0 64 64" xml:space="preserve">
<g>
	<rect x="2.077" y="9.558" fill="#FFFBCA" width="59.846" height="44.885"/>
	<g>
		<polygon fill="#FFE180" points="40.979,29.726 45.165,29.726 37.686,22.245 33.495,26.434 40.979,33.915 		"/>
		<polygon fill="#FFE180" points="23.023,29.726 18.834,29.726 26.314,22.245 30.505,26.434 23.023,33.915 		"/>
	</g>
	<rect x="12.55" y="36.607" fill="#FFE180" width="38.899" height="2.992"/>
	<path fill="#FFE180" d="M31.999,13.269c-4.188,0-7.479,3.291-7.479,7.48s3.292,7.48,7.479,7.48c4.188,0,7.481-3.291,7.481-7.48
		S36.188,13.269,31.999,13.269z M31.999,25.237c-2.542,0-4.487-1.945-4.487-4.488s1.944-4.489,4.487-4.489
		c2.544,0,4.487,1.946,4.487,4.489S34.543,25.237,31.999,25.237z"/>
	<path fill="#FFE180" d="M0.581,8.062v47.877h62.838V8.062H0.581z M60.426,48.458c-2.542,0-4.488,1.944-4.488,4.489H8.062
		c0-2.545-1.945-4.489-4.489-4.489V15.542c2.544,0,4.489-1.944,4.489-4.488h47.875c0,2.544,1.945,4.488,4.487,4.488L60.426,48.458
		L60.426,48.458z"/>
	<rect x="12.55" y="41.994" fill="#FFE180" width="38.899" height="2.992"/>
	<rect x="12.55" y="47.38" fill="#FFE180" width="38.899" height="2.993"/>
</g>
</svg>
