<?xml version="1.0" encoding="utf-8"?>
<!-- Generator: Adobe Illustrator 16.0.0, SVG Export Plug-In . SVG Version: 6.00 Build 0)  -->
<!DOCTYPE svg PUBLIC "-//W3C//DTD SVG 1.1//EN" "http://www.w3.org/Graphics/SVG/1.1/DTD/svg11.dtd">
<svg version="1.1" id="Layer_1" xmlns="http://www.w3.org/2000/svg" xmlns:xlink="http://www.w3.org/1999/xlink" x="0px" y="0px"
	 width="64px" height="64px" viewBox="0 0 64 64" enable-background="new 0 0 64 64" xml:space="preserve">
<g>
	<g>
		<defs>
			<rect id="SVGID_1_" width="64" height="64"/>
		</defs>
		<clipPath id="SVGID_2_">
			<use xlink:href="#SVGID_1_"  overflow="visible"/>
		</clipPath>
		<g clip-path="url(#SVGID_2_)">
			<g>
				<defs>
					<rect id="SVGID_3_" width="64" height="64"/>
				</defs>
				<defs>
					<rect id="SVGID_4_" width="64" height="64"/>
				</defs>
				<clipPath id="SVGID_5_">
					<use xlink:href="#SVGID_3_"  overflow="visible"/>
				</clipPath>
				<clipPath id="SVGID_6_" clip-path="url(#SVGID_5_)">
					<use xlink:href="#SVGID_4_"  overflow="visible"/>
				</clipPath>
			</g>
		</g>
	</g>
</g>
<g>
	<path fill="#C75C5C" d="M31.541,40.067c-2.418,2.416-9.451,19.466-9.451,19.466c-1.03,1.878,0.512,3.238,4.026,1.457l12.624-6.888
		c6.803-3.781,8.117-4.766,8.025-12.466l-1.264-9.085c-0.431-3.113-2.763-3.685-5.179-1.269L31.541,40.067z"/>
	<path fill="#C75C5C" d="M23.739,32.265c-2.416,2.415-19.467,9.45-19.467,9.45c-1.877,1.032-3.239-0.513-1.455-4.025l6.885-12.625
		c3.78-6.8,4.768-8.117,12.465-8.026l9.086,1.265c3.113,0.433,3.683,2.765,1.268,5.179L23.739,32.265z"/>
	<path fill="#E0995E" d="M14.696,39.852c7.876-7.877,14.495-5.473,14.495-5.473s2.405,6.618-5.472,14.496
		C15.84,56.753,3.084,62.475,2.091,61.48C1.125,60.516,6.816,47.729,14.696,39.852"/>
	<path fill="#F5CF87" d="M21.281,33.265c7.878-7.877,14.497-5.475,14.497-5.475s2.404,6.618-5.473,14.497
		C22.426,50.164,9.67,55.886,8.675,54.892C7.713,53.93,13.404,41.142,21.281,33.265"/>
	<g opacity="0.2">
		<g>
			<defs>
				<rect id="SVGID_7_" x="18.324" y="5.213" width="43.106" height="43.136"/>
			</defs>
			<clipPath id="SVGID_8_">
				<use xlink:href="#SVGID_7_"  overflow="visible"/>
			</clipPath>
			<path clip-path="url(#SVGID_8_)" fill="#231F20" d="M49.451,39.126"/>
		</g>
	</g>
	<path fill="#E0E0D1" d="M49.451,36.021c-12.125,12.126-30.713,8.808-30.713,8.808s-3.318-18.586,8.809-30.712
		C39.672,1.992,58.043,0.701,60.453,3.114C62.793,5.454,61.575,23.897,49.451,36.021"/>
	<path fill="#C75C5C" d="M14.348,51.416c-1.212,1.213-2.081,2.312-3.293,1.098c-1.212-1.213-0.114-2.08,1.098-3.293l15.368-19.759
		c1.213-1.213,6.474-2.311,7.685-1.098c1.212,1.212,0.115,6.47-1.098,7.685L14.348,51.416z"/>
	<g opacity="0.2">
		<g>
			<defs>
				<rect id="SVGID_9_" x="36.984" y="17.503" width="12.42" height="12.42"/>
			</defs>
			<clipPath id="SVGID_10_">
				<use xlink:href="#SVGID_9_"  overflow="visible"/>
			</clipPath>
			<path clip-path="url(#SVGID_10_)" fill="#231F20" d="M47.587,28.105c-2.426,2.425-6.358,2.425-8.784,0
				c-2.424-2.425-2.424-6.357,0-8.782c2.429-2.428,6.362-2.428,8.784,0C50.012,21.746,50.012,25.681,47.587,28.105"/>
		</g>
	</g>
	<g opacity="0.2">
		<g>
			<path fill="#231F20" d="M54.174,17.126c-1.214,1.212-3.179,1.212-4.392,0c-1.212-1.212-1.212-3.178,0-4.39
				c1.213-1.213,3.178-1.213,4.392,0C55.385,13.949,55.385,15.914,54.174,17.126"/>
		</g>
	</g>
	<path fill="#4F5D73" d="M47.587,25.001c-2.426,2.425-6.358,2.425-8.784,0c-2.424-2.425-2.424-6.358,0-8.782
		c2.429-2.427,6.362-2.427,8.784,0C50.012,18.641,50.012,22.576,47.587,25.001"/>
	<path fill="#4F5D73" d="M54.174,14.022c-1.214,1.212-3.179,1.212-4.392,0c-1.212-1.213-1.212-3.179,0-4.391
		c1.213-1.212,3.178-1.212,4.392,0C55.385,10.843,55.385,12.809,54.174,14.022"/>
	<rect x="48.874" y="11.827" fill="none" width="6.209" height="6.21"/>
</g>
</svg>
